<svg xmlns="http://www.w3.org/2000/svg" width="256" height="256" viewBox="0 0 256 256" role="img" aria-label="Wrestling e UFC">
  <defs>
    <linearGradient id="bg" x1="0" y1="0" x2="1" y2="1">
      <stop offset="0%" stop-color="#1b2333"/>
      <stop offset="100%" stop-color="#0b0e14"/>
    </linearGradient>
    <linearGradient id="gold" x1="0" y1="0" x2="0" y2="1">
      <stop offset="0%" stop-color="#f6d365"/>
      <stop offset="55%" stop-color="#d7a13b"/>
      <stop offset="100%" stop-color="#9a6b18"/>
    </linearGradient>
  </defs>

  <rect width="256" height="256" rx="46" fill="url(#bg)"/>

  <!-- octogono (MMA) -->
  <polygon points="128,36 186,60 210,118 186,176 128,200 70,176 46,118 70,60"
           fill="none" stroke="#d7263d" stroke-width="7" stroke-linejoin="round" opacity="0.85"/>

  <!-- correia do cinturao -->
  <path d="M28 128 h48 M180 128 h48" stroke="#3b4658" stroke-width="18" stroke-linecap="round"/>

  <!-- placa central do cinturao -->
  <path d="M128 70 c26 0 48 12 48 12 v30 c0 30-22 52-48 62 -26-10-48-32-48-62 V82 s22-12 48-12 z"
        fill="url(#gold)" stroke="#6d4a10" stroke-width="4"/>

  <!-- estrela simples na placa -->
  <path d="M128 96 l9 19 21 3 -15 15 4 21 -19-10 -19 10 4-21 -15-15 21-3 z"
        fill="#2a1c05" opacity="0.75"/>
</svg>
